<svg width="14" height="14" viewBox="0 0 14 14" fill="none" xmlns="http://www.w3.org/2000/svg">
  <g clip-path="url(#clip0_1904_231)">
    <path
      d="M10 4V2.5C10 2.10218 9.84196 1.72064 9.56066 1.43934C9.27936 1.15804 8.89782 1 8.5 1H2.5C2.10218 1 1.72064 1.15804 1.43934 1.43934C1.15804 1.72064 1 2.10218 1 2.5V8.5C1 8.89782 1.15804 9.27936 1.43934 9.56066C1.72064 9.84196 2.10218 10 2.5 10H4"
      stroke="black" stroke-width="0.1" stroke-linecap="round" stroke-linejoin="round" />
    <path
      d="M11.5 4H5.5C4.67157 4 4 4.67157 4 5.5V11.5C4 12.3284 4.67157 13 5.5 13H11.5C12.3284 13 13 12.3284 13 11.5V5.5C13 4.67157 12.3284 4 11.5 4Z"
      fill="#B42B2B" stroke="black" stroke-width="0.1" stroke-linecap="round" stroke-linejoin="round" />
  </g>
  <defs>
    <clipPath id="clip0_1904_231">
      <rect width="14" height="14" fill="white" />
    </clipPath>
  </defs>
</svg>