<svg xmlns="http://www.w3.org/2000/svg" viewBox="0 -960 960 960" width="24" height="24">
  <path
    d="M187.692-166.154q-25.577 0-43.558-17.98-17.98-17.981-17.98-43.558v-109.539h707.692v109.539q0 25.577-17.98 43.558-17.981 17.98-43.558 17.98H187.692Zm-24.615-134.153v72.615q0 10.769 6.923 17.692t17.692 6.923h584.616q10.769 0 17.692-6.923t6.923-17.692v-72.615H163.077Zm317.231-156.924q-34.346 0-53.404 20-19.058 20-64.93 20-45.873 0-64.577-20-18.705-20-53.243-20-34.539 0-53.55 20-19.011 20-64.45 20v-36.923q34.095 0 53.134-20 19.04-20 64.876-20 45.836 0 64.677 20 18.841 20 53.178 20 34.338 0 53.294-20 18.956-20 65.04-20t64.904 20q18.82 20 53.358 20 34.539 0 52.193-20 17.654-20 63.5-20 45.846 0 65.481 20 19.634 20 54.057 20v36.923q-45.653 0-63.327-20-17.673-20-52.211-20-34.539 0-54.192 20-19.654 20-65.501 20-45.846 0-64.903-20-19.058-20-53.404-20ZM126.154-574.154v-24q0-86.231 80.423-140.962Q287-793.846 480-793.846t273.423 54.73q80.423 54.731 80.423 140.962v24H126.154ZM480-756.923q-150.769 0-228.404 37.942-77.634 37.942-87.134 107.904h631.076q-9.5-69.962-87.134-107.904Q630.769-756.923 480-756.923Zm0 456.616Zm0-310.77Z" />
</svg>