<svg xmlns="http://www.w3.org/2000/svg" height="24" viewBox="0 -960 960 960" width="24">
  <path
    d="M227.551-166.154q-25.796 0-43.597-17.8-17.8-17.801-17.8-43.738v-126.347h36.923v126.347q0 9.231 7.692 16.923 7.692 7.692 16.923 7.692h504.616q9.231 0 16.923-7.692 7.692-7.692 7.692-16.923v-504.616q0-9.231-7.692-16.923-7.692-7.692-16.923-7.692H227.692q-9.231 0-16.923 7.692-7.692 7.692-7.692 16.923v125.962h-36.923v-125.962q0-25.937 17.8-43.738 17.801-17.8 43.597-17.8h504.898q25.796 0 43.597 17.8 17.8 17.801 17.8 43.597v504.898q0 25.796-17.8 43.597-17.801 17.8-43.597 17.8H227.551Zm206.795-160.615L408-354.192l107.538-107.539H166.154v-36.923h349.384L408-606.192l26.346-27.039 152.616 153.346-152.616 153.116Z" />
</svg>