<svg width="35" height="34" viewBox="0 0 35 34" fill="none" xmlns="http://www.w3.org/2000/svg">
  <path
    d="M33.692 8.5081C32.835 6.69786 31.6173 5.15917 30.1289 3.892C28.6405 2.62484 26.8814 1.67447 24.8067 0.995628C22.8222 0.316791 20.6121 0 18.2668 0C15.8312 0 13.4407 0.407302 11.2758 1.26716C9.06572 2.12702 7.12629 3.30368 5.45747 4.88763C3.78866 6.42633 2.48067 8.32707 1.4884 10.5446C0.496134 12.7169 0 15.206 0 17.9213C0 19.641 0.270619 21.2702 0.721649 22.7637C1.21778 24.2119 1.89433 25.5695 2.70619 26.7009C3.51804 27.8776 4.51031 28.8732 5.63789 29.7783C6.76546 30.6382 7.93814 31.4075 9.20103 31.9506C10.4639 32.5389 11.7719 32.9462 13.125 33.263C14.4781 33.5346 15.7861 33.7156 17.049 33.7156C18.4472 33.7156 19.7552 33.6251 20.9278 33.3988C22.1005 33.1725 23.2281 32.8105 24.2655 32.3127L24.8067 32.0411L23.6791 29.1448L23.0928 29.4163C22.326 29.7331 21.4691 29.9594 20.5219 30.1404C19.5747 30.3214 18.7178 30.3667 17.9961 30.3667C16.192 30.3667 14.3879 30.0951 12.674 29.5068C10.9601 28.9637 9.42655 28.1039 8.11856 27.063C6.81057 26.0221 5.72809 24.6644 4.91624 23.1257C4.05928 21.587 3.65335 19.7768 3.65335 17.7403C3.65335 15.749 4.01417 13.8483 4.69072 12.0833C5.36727 10.3183 6.35954 8.77963 7.62242 7.51247C8.88531 6.20005 10.3737 5.20442 12.1327 4.48033C13.8918 3.75623 15.9214 3.39419 18.0863 3.39419C19.8905 3.39419 21.6495 3.66572 23.2732 4.20879C24.8969 4.75186 26.2951 5.52121 27.4678 6.51684C27.5129 6.5621 27.6031 6.60735 27.6482 6.69786H21.6946V10.2731L15.6057 15.2512H15.4704L17.3196 6.69786H9.02062V10.0015H11.6817L8.16366 27.063H13.0799L14.884 18.0118H15.4253L20.3866 27.0177L20.7474 27.063C21.1985 27.1082 21.6495 27.1535 22.0554 27.1988C22.4613 27.244 22.9124 27.244 23.3183 27.244C25.393 27.244 27.2423 26.882 28.7307 26.1579C30.2191 25.4338 31.4369 24.4382 32.384 23.2615C33.3312 22.0848 34.0077 20.7272 34.4137 19.2337C34.8196 17.7855 35.0451 16.2921 35.0451 14.7987C35 12.4001 34.549 10.3183 33.692 8.5081ZM27.8286 9.54898V6.69786C28.8209 7.60298 29.6778 8.73438 30.2642 9.95628C30.9407 11.3592 31.3015 12.8979 31.3015 14.6629C31.3015 16.0206 31.1211 17.2877 30.7603 18.4191C30.3995 19.5505 29.9033 20.5009 29.317 21.3155C28.7307 22.0848 28.009 22.7184 27.1521 23.1257C26.3402 23.533 25.4832 23.7593 24.5812 23.7593L19.7101 15.6133L27.8286 9.54898Z"
    fill="#D9C326" />
</svg>