<svg xmlns="http://www.w3.org/2000/svg" viewBox="0 -960 960 960" width="24" height="24">
  <path
    d="M480.206-492.5q26.025 0 44.544-18.533t18.519-44.558q0-26.024-18.613-44.544-18.612-18.519-44.75-18.519-26.137 0-44.464 18.613-18.327 18.613-18.327 44.75t18.533 44.464q18.533 18.327 44.558 18.327ZM480-174.769q111.247-98.092 176.008-198.7 64.761-100.608 64.761-173.954 0-108.654-68.458-179.404t-172.384-70.75q-103.927 0-172.312 70.75-68.384 70.75-68.384 179.404 0 73.346 64.761 173.954T480-174.769Zm0 49.385Q341.577-249.346 271.942-355.019q-69.635-105.673-69.635-192.217 0-124.047 80.866-205.271Q364.038-833.731 480-833.731t196.827 81.224q80.866 81.224 80.866 205.271 0 86.544-69.635 192.217Q618.423-249.346 480-125.384Zm0-430.001Z" />
</svg>