<?xml version="1.0" encoding="utf-8"?>
<svg xmlns="http://www.w3.org/2000/svg" xmlns:xlink="http://www.w3.org/1999/xlink" version="1.1"
	style="enable-background:new 0 0 358.4 262;" xml:space="preserve" width="302" height="217">
	<rect id="backgroundrect" width="100%" height="100%" x="0" y="0" fill="none" stroke="none" />
	<style type="text/css">
		.st0 {
			fill: #B6533F;
		}

		.st1 {
			fill: #E84427;
		}

		.st2 {
			fill: #7D7E35;
		}

		.st3 {
			fill: #7BBB58;
		}

		.st4 {
			fill: #D83030;
		}

		.st5 {
			fill: #EA3434;
		}

		.st6 {
			fill: #FFFFFF;
		}

		.st7 {
			fill: #CE2121;
		}

		.st8 {
			opacity: 7.000000e-02;
			fill: #E8FCF8;
		}

		.st9 {
			fill: #D5DCE0;
		}

		.st10 {
			fill: #DDE8E5;
		}

		.st11 {
			fill: #FFFFFF;
			stroke: #FFFFFF;
			stroke-miterlimit: 10;
		}
	</style>




	<g class="currentLayer">
		<title>Layer 1</title>
		<g id="svg_1">
			<g id="svg_2">
				<path class="st0"
					d="M97.3,155.8000015258789 l-17.8,39.8 H65 l-7.9,-20.9 l-9.6,20.9 H32.3 l-16,-39.8 h-5.5 v-13.8 h32.7 v13.8 H39 l6.8,17.3 l5.7,-13.2 l-1.5,-4.1 h-2.8 v-13.8 h28.2 v13.8 H71 l6.3,16.2 l6.9,-16.2 h-5 v-13.8 h23.1 v13.8 H97.3 z"
					id="svg_3" />
				<path class="st0"
					d="M157.7,180.6000015258789 c-1.5,3.5 -3.6,6.4 -6.2,8.8 c-2.6,2.4 -5.7,4.3 -9.2,5.6 c-3.5,1.3 -7.2,1.9 -11.2,1.9 c-4,0 -7.7,-0.7000000000000001 -11.2,-1.9 c-3.5,-1.3 -6.6,-3.2 -9.2,-5.6 c-2.6,-2.4 -4.7,-5.4 -6.2,-8.8 c-1.5,-3.5 -2.3,-7.4 -2.3,-11.7 c0,-4.3 0.7000000000000001,-8.3 2.3,-11.8 c1.5,-3.5 3.6,-6.4 6.2,-8.8 c2.6,-2.4 5.7,-4.3 9.2,-5.6 c3.5,-1.3 7.2,-2 11.2,-2 c4,0 7.7,0.7000000000000001 11.2,2 c3.5,1.3 6.6,3.2 9.2,5.6 c2.6,2.4 4.7,5.4 6.2,8.8 c1.5,3.5 2.3,7.4 2.3,11.8 C159.9,173.20000152587892 159.2,177.1000015258789 157.7,180.6000015258789 zM136.3,161.9000015258789 c0,-2.3 -0.4,-4.2 -1.2,-5.7 c-0.8,-1.5 -2.2,-2.3 -4,-2.3 c-1.9,0 -3.2,0.8 -4,2.3 c-0.8,1.5 -1.2,3.4 -1.2,5.7 v13.8 c0,2.3 0.4,4.2 1.2,5.7 c0.8,1.5 2.2,2.3 4,2.3 c1.8,0 3.2,-0.7000000000000001 4,-2.3 c0.8,-1.5 1.2,-3.4 1.2,-5.7 V161.9000015258789 z"
					id="svg_4" />
				<path class="st0"
					d="M198.5,195.6000015258789 v-13.8 h3.7 l-7.3,-9 l-4.6,3.1 v6 h4.5 v13.8 h-32.3 v-13.8 h6 v-26.1 h-6 v-13.8 h33 v13.8 h-5.2 v11.3 l16,-11.3 h-7.1 v-13.8 h29 v13.8 h-7.6 l-9.4,6.3 l15.8,19.7 h5.6 v13.8 H198.5 z"
					id="svg_5" />
			</g>
			<polygon class="st0" points="0,8.5 0,0 302.3999938964844,0 302.3999938964844,8.5 0,8.5 " id="svg_6" />
			<polygon class="st1"
				points="0,216.9000015258789 0,208.4000015258789 302.3999938964844,208.4000015258789 302.3999938964844,216.9000015258789 0,216.9000015258789 "
				id="svg_7" />
			<g id="svg_8">
				<path class="st1"
					d="M61,21.300001525878912 c8,0 17.6,0.8 17.6,14.5 c0,7.2 -1.1,10.3 -4.9,12.9 c-3.5,2.5 -9.1,4 -19.2,4 h-8.7 V74.9000015258789 H24.5 V21.300001525878912 H61 zM50.8,43.0000015258789 c1.8,0 4.9,0 6.5,-1.6 c1.2,-1.3 1.3,-3.7 1.3,-4.5 c0,-1.1 -0.1,-3.1 -1.4,-4.3 c-1.5,-1.5 -4,-1.5 -5.7,-1.5 h-5.7 v11.9 H50.8 z"
					id="svg_9" />
				<path class="st1" d="M105.7,21.300001525878912 V74.9000015258789 H84.4 V21.300001525878912 H105.7 z"
					id="svg_10" />
				<path class="st1"
					d="M163.1,32.30000152587891 l-25.8,32.4 h26.5 V74.9000015258789 h-52.4 v-10.3 l25.9,-32.4 v-0.6000000000000001 H114 V21.300001525878912 h49.1 V32.30000152587891 z"
					id="svg_11" />
				<path class="st1"
					d="M220.8,32.30000152587891 L195,64.80000152587891 h26.5 V74.9000015258789 h-52.4 v-10.3 l25.9,-32.4 v-0.6000000000000001 h-23.3 V21.300001525878912 h49.1 V32.30000152587891 z"
					id="svg_12" />
				<path class="st1"
					d="M268.6,21.300001525878912 l15.6,53.5 h-22.8 l-1.9,-6.7 h-17.1 l-1.8,6.7 h-15.9 l15.6,-53.5 H268.6 zM256.8,58.400001525878906 l-5.9,-21.2 l-5.8,21.2 H256.8 z"
					id="svg_13" />
			</g>
			<g id="svg_14">
				<path class="st2"
					d="M54.8,126.6000015258789 c-1.2,2.1 -2.9,3.9 -5,5.4 c-2.1,1.5 -4.6,2.6 -7.4,3.4 c-2.8,0.8 -5.9,1.2 -9.1,1.2 c-4.4,0 -8.5,-0.7000000000000001 -12.2,-2.1 c-3.7,-1.4 -6.7,-3.5 -9.1,-6.1 l-8.3,8.3 h-1 v-25.4 h1 c2.1,2.6 4.1,4.9 6.2,6.8 c2.1,1.9 4.2,3.4 6.3,4.7 c2.1,1.2 4.1,2.2 6,2.7 c1.9,0.6000000000000001 3.6,0.9 5.3,0.9 c2.1,0 3.7,-0.4 4.7,-1.1 c1,-0.8 1.5,-1.7000000000000002 1.5,-2.9 c0,-1 -0.7000000000000001,-1.9 -2.2,-2.6 c-1.5,-0.7000000000000001 -3.3,-1.4 -5.6,-2 c-2.2,-0.7000000000000001 -4.6,-1.4 -7.2,-2.3 c-2.6,-0.9 -5,-2.1 -7.2,-3.5 c-2.2,-1.5 -4.1,-3.3 -5.6,-5.6 c-1.5,-2.3 -2.2,-5.1 -2.2,-8.6 c0,-2.3 0.6000000000000001,-4.5 1.8,-6.6 c1.2,-2.1 2.9,-3.9 5,-5.5 c2.1,-1.5 4.6,-2.8 7.4,-3.7 c2.8,-0.9 5.8,-1.4 9,-1.4 c1.9,0 3.7,0.2 5.5,0.6000000000000001 c1.8,0.4 3.4,0.9 5,1.6 c1.5,0.7000000000000001 2.9,1.5 4.1,2.4 c1.2,1 2.2,2 3,3 l6.8,-7.7 h1 v22.5 h-1 c-3.3,-4.2 -6.7,-7.3 -10.3,-9.6 c-3.6,-2.2 -7,-3.3 -10.2,-3.3 c-2.2,0 -3.7,0.4 -4.7,1.1 c-1,0.8 -1.5,1.7000000000000002 -1.5,2.9 c0,0.8 0.4,1.5 1.4,2.1 c0.9,0.6000000000000001 2.1,1.2 3.6,1.7000000000000002 c1.5,0.5 3.2,1.1 5.1,1.6 c1.9,0.5 3.9,1.2 5.9,1.9 c2,0.7000000000000001 4,1.6 5.9,2.6 c1.9,1 3.6,2.2 5.1,3.7 c1.5,1.4 2.7,3.1 3.7,5 c0.9,1.9 1.4,4.2 1.4,6.8 C56.6,122.1000015258789 56,124.4000015258789 54.8,126.6000015258789 z"
					id="svg_15" />
				<path class="st2"
					d="M120.2,89.6000015258789 V115.9000015258789 c0,3.3 -0.8,6.2 -2.4,8.8 c-1.6,2.6 -3.7,4.7 -6.3,6.5 c-2.6,1.8 -5.6,3.1 -8.9,4 c-3.3,0.9 -6.8,1.4 -10.3,1.4 c-3.5,0 -7,-0.5 -10.4,-1.4 c-3.4,-0.9 -6.5,-2.2 -9.2,-4 c-2.7,-1.7000000000000002 -4.9,-3.9 -6.5,-6.5 c-1.7000000000000002,-2.6 -2.5,-5.5 -2.5,-8.8 v-26.4 l-8.1,-6.9 v-1 h37.6 v1 l-7,6.9 v28.1 c0,0.8 0.2,1.6 0.7000000000000001,2.4 c0.5,0.7000000000000001 1.1,1.3 1.9,1.9 c0.8,0.5 1.7000000000000002,0.9 2.7,1.2 c1,0.30000000000000004 2.1,0.5 3.2,0.5 c1.1,0 2.2,-0.1 3.2,-0.5 c1,-0.30000000000000004 1.9,-0.7000000000000001 2.7,-1.2 c0.8,-0.5 1.4,-1.2 1.8,-1.9 c0.5,-0.7000000000000001 0.7000000000000001,-1.5 0.7000000000000001,-2.4 v-28.1 l-7,-6.9 v-1 h32.3 v1 L120.2,89.6000015258789 z"
					id="svg_16" />
				<path class="st2"
					d="M179.8,126.6000015258789 c-1.2,2.1 -2.9,3.9 -5,5.4 c-2.1,1.5 -4.6,2.6 -7.4,3.4 c-2.8,0.8 -5.9,1.2 -9.1,1.2 c-4.4,0 -8.5,-0.7000000000000001 -12.2,-2.1 c-3.7,-1.4 -6.7,-3.5 -9.1,-6.1 l-8.3,8.3 h-1 v-25.4 h1 c2.1,2.6 4.1,4.9 6.2,6.8 c2.1,1.9 4.2,3.4 6.3,4.7 c2.1,1.2 4.1,2.2 6,2.7 c1.9,0.6000000000000001 3.7,0.9 5.3,0.9 c2.1,0 3.7,-0.4 4.8,-1.1 c1,-0.8 1.5,-1.7000000000000002 1.5,-2.9 c0,-1 -0.7000000000000001,-1.9 -2.2,-2.6 c-1.5,-0.7000000000000001 -3.3,-1.4 -5.6,-2 c-2.2,-0.7000000000000001 -4.6,-1.4 -7.2,-2.3 c-2.6,-0.9 -5,-2.1 -7.2,-3.5 c-2.2,-1.5 -4.1,-3.3 -5.6,-5.6 c-1.5,-2.3 -2.2,-5.1 -2.2,-8.6 c0,-2.3 0.6000000000000001,-4.5 1.8,-6.6 c1.2,-2.1 2.9,-3.9 5,-5.5 c2.1,-1.5 4.6,-2.8 7.4,-3.7 c2.8,-0.9 5.8,-1.4 9,-1.4 c1.9,0 3.7,0.2 5.5,0.6000000000000001 c1.8,0.4 3.4,0.9 4.9,1.6 c1.5,0.7000000000000001 2.9,1.5 4.1,2.4 c1.2,1 2.2,2 3,3 l6.8,-7.7 h1 v22.5 h-1 c-3.3,-4.2 -6.7,-7.3 -10.3,-9.6 c-3.6,-2.2 -7,-3.3 -10.2,-3.3 c-2.1,0 -3.7,0.4 -4.8,1.1 c-1,0.8 -1.5,1.7000000000000002 -1.5,2.9 c0,0.8 0.5,1.5 1.4,2.1 c0.9,0.6000000000000001 2.1,1.2 3.7,1.7000000000000002 c1.5,0.5 3.2,1.1 5.1,1.6 c1.9,0.5 3.9,1.2 5.9,1.9 c2,0.7000000000000001 4,1.6 5.9,2.6 c1.9,1 3.6,2.2 5.1,3.7 c1.5,1.4 2.7,3.1 3.7,5 c0.9,1.9 1.4,4.2 1.4,6.8 C181.6,122.1000015258789 181,124.4000015258789 179.8,126.6000015258789 z"
					id="svg_17" />
				<path class="st2"
					d="M221.6,135.20000152587892 v-0.8 l6.1,-6.9 v-15.1 h-15 v15.1 l6.1,6.9 v0.8 h-36.8 v-0.8 l8.2,-6.9 v-37.9 l-8.2,-6.9 v-1 h36.8 v1 l-6.1,6.9 v14.1 h15 v-14.1 l-6.1,-6.9 v-1 h36.8 v1 l-8.2,6.9 v37.9 l8.2,6.9 v0.8 H221.6 z"
					id="svg_18" />
				<path class="st2"
					d="M261,135.20000152587892 v-0.8 l8.1,-6.9 v-37.9 l-8.1,-6.9 v-1 h38.8 v1 l-8.2,6.9 v37.9 l8.2,6.9 v0.8 H261 z"
					id="svg_19" />
			</g>
			<path class="st3"
				d="M294.7,168.8000015258789 c0,15.7 -13.1,28.4 -29.2,28.4 c-16.1,0 -29.2,-12.7 -29.2,-28.4 c0,-15.7 13.1,-28.4 29.2,-28.4 C281.7,140.4000015258789 294.7,153.1000015258789 294.7,168.8000015258789 zM287.2,177.70000152587892 v-17.3 c0,-0.2 -0.2,-0.4 -0.4,-0.4 h-4.1 c-0.2,0 -0.4,0.2 -0.4,0.4 v10.7 c0,2.3 -1.7000000000000002,4.1 -4.1,4.1 c-1.8,0 -3.1,-0.9 -3.1,-3 v-11.8 c0,-0.2 -0.2,-0.4 -0.4,-0.4 h-4.1 c-0.2,0 -0.4,0.2 -0.4,0.4 v12.6 c0,3.4 2.5,5.6 6.3,5.6 c1.8,0 4,-0.7000000000000001 5.8,-2.8 l0.30000000000000004,1.9 c0,0.2 0.2,0.4 0.4,0.4 h3.6 C287.1,178.1000015258789 287.2,177.9000015258789 287.2,177.70000152587892 M267.3,165.4000015258789 c0,-1.8 -0.5,-3.5 -1.8,-4.6 c-0.9,-0.7000000000000001 -2,-1.1 -3.2,-1.1 c-1.9,0 -3.6,0.9 -4.8,2.6 l-0.2,-1.9 c0,-0.2 -0.2,-0.4 -0.4,-0.4 h-3.7 c-0.2,0 -0.4,0.2 -0.4,0.4 v17.3 c0,0.2 0.2,0.4 0.4,0.4 h4.1 c0.2,0 0.4,-0.2 0.4,-0.4 v-10.6 c0,-3.2 1.9,-4.1 3.2,-4.1 c1.8,0 2.1,1.5 2.2,2.6 c0,0.2 0.2,0.4 0.4,0.4 h0.1 l3.5,-0.2 C267.1,165.8000015258789 267.3,165.6000015258789 267.3,165.4000015258789 M248.2,177.70000152587892 v-4.9 c0,-0.2 -0.2,-0.4 -0.4,-0.4 h-5 c-0.2,0 -0.4,0.1 -0.4,0.4 v4.9 c0,0.2 0.2,0.4 0.4,0.4 h5 C248,178.1000015258789 248.2,177.9000015258789 248.2,177.70000152587892 "
				id="svg_20" />
		</g>
	</g>
</svg>