<svg xmlns="http://www.w3.org/2000/svg" height="24" viewBox="0 -960 960 960" width="24">
  <path
    d="M454.461-341.538q0-52.27 18.596-90.462 18.597-38.192 72.212-82.808 34.538-29.461 52.096-59.72 17.558-30.258 17.558-68.426 0-54.815-37.472-90.392t-102.682-35.577q-51.892 0-83.176 23.519-31.285 23.52-50.593 59.366l-39.923-19.039q26.846-50.923 69.519-79.077 42.673-28.154 104.173-28.154 89.346 0 137.135 50.25 47.789 50.25 47.789 119.52 0 43.23-20.058 82.077-20.058 38.846-57.058 70.192-54.538 46.461-68.827 76.808-14.288 30.346-14.404 71.923h-44.885Zm20.325 218.461q-14.863 0-25.902-11.021-11.038-11.022-11.038-25.885 0-14.863 11.021-25.902 11.022-11.038 25.885-11.038 14.864 0 25.902 11.021 11.039 11.022 11.039 25.885 0 14.863-11.022 25.902-11.021 11.038-25.885 11.038Z" />
</svg>