<svg width="24" height="24" viewBox="0 0 24 24" fill="none" xmlns="http://www.w3.org/2000/svg">
  <path
    d="M12 15.8921C13.0852 15.8921 14.0053 15.5147 14.7601 14.7598C15.5149 14.005 15.8923 13.085 15.8923 11.9997C15.8923 10.9145 15.5149 9.99446 14.7601 9.23965C14.0053 8.48483 13.0852 8.10742 12 8.10742C10.9147 8.10742 9.99471 8.48483 9.23989 9.23965C8.48507 9.99446 8.10767 10.9145 8.10767 11.9997C8.10767 13.085 8.48507 14.005 9.23989 14.7598C9.99471 15.5147 10.9147 15.8921 12 15.8921Z"
    fill="black" />
  <path
    d="M12.0045 20.8461C10.7813 20.8461 9.63069 20.6137 8.55286 20.149C7.47503 19.6842 6.53746 19.0534 5.74016 18.2567C4.94286 17.46 4.31248 16.5242 3.84901 15.4495C3.38554 14.3748 3.15381 13.2265 3.15381 12.0045C3.15381 10.7813 3.38619 9.63069 3.85096 8.55286C4.31573 7.47503 4.94648 6.53746 5.74321 5.74016C6.53996 4.94286 7.47569 4.31247 8.55041 3.84901C9.62513 3.38554 10.7734 3.15381 11.9954 3.15381C13.2187 3.15381 14.3692 3.38619 15.4471 3.85096C16.5249 4.31572 17.4625 4.94648 18.2598 5.74321C19.0571 6.53996 19.6874 7.47569 20.1509 8.55041C20.6144 9.62513 20.8461 10.7734 20.8461 11.9954C20.8461 13.2187 20.6137 14.3692 20.149 15.4471C19.6842 16.5249 19.0534 17.4625 18.2567 18.2598C17.46 19.0571 16.5242 19.6874 15.4495 20.1509C14.3748 20.6144 13.2265 20.8461 12.0045 20.8461ZM11.9993 19.923C14.2042 19.923 16.0761 19.1539 17.6149 17.6155C19.1536 16.0771 19.923 14.2055 19.923 12.0006C19.923 9.79568 19.1539 7.92384 17.6155 6.38506C16.0771 4.84628 14.2055 4.07688 12.0006 4.07688C9.79568 4.07688 7.92384 4.84606 6.38506 6.38441C4.84628 7.92278 4.07688 9.79442 4.07688 11.9993C4.07688 14.2042 4.84606 16.0761 6.38441 17.6149C7.92278 19.1536 9.79442 19.923 11.9993 19.923Z"
    fill="#B40000" />
</svg>