<svg xmlns="http://www.w3.org/2000/svg" viewBox="0 -960 960 960" width="24" height="24">
  <path
    d="M244.231-166.154q-20.385 0-37.116-11.98-16.731-11.981-22.192-32.25L97.884-518.269q-4.23-14.584 5.096-26.619 9.327-12.035 24.751-12.035h186.576L454.87-769.778q4.826-6.855 11.356-10.231 6.531-3.376 14.812-3.376 7.569 0 14.035 3.731 6.465 3.73 10.943 10.399l139.215 212.332h187.597q14.752 0 24.52 12.057 9.768 12.058 5.152 26.597l-88.961 307.885q-5.462 20.269-22.193 32.25-16.73 11.98-37.115 11.98h-470Zm-3.192-36.923h478.038q8.462 0 14.615-5 6.154-5 8.462-13.461L824.923-520H135.077l82.886 298.462q2.307 8.461 8.461 13.461t14.615 5Zm238.988-121.846q14.819 0 25.858-11.066 11.038-11.065 11.038-25.884t-11.065-25.858q-11.066-11.038-25.885-11.038t-25.858 11.065q-11.038 11.066-11.038 25.885t11.065 25.858q11.066 11.038 25.885 11.038Zm-120.373-232h240.961L480.269-741.231 359.654-556.923ZM480-361.731Z" />
</svg>